<svg width="16" height="16" viewBox="0 0 16 16" fill="none" xmlns="http://www.w3.org/2000/svg">
    <path d="M8.26797 2.78437C8.26797 2.42517 7.97581 2.13008 7.61903 2.17171C6.74117 2.27412 5.89675 2.58332 5.15677 3.07776C4.23586 3.69309 3.51809 4.56769 3.09424 5.59096C2.67039 6.61422 2.55949 7.7402 2.77557 8.82649C2.99165 9.91278 3.525 10.9106 4.30817 11.6938C5.09134 12.477 6.08917 13.0103 7.17546 13.2264C8.26176 13.4425 9.38773 13.3316 10.411 12.9077C11.4343 12.4839 12.3089 11.7661 12.9242 10.8452C13.4186 10.1052 13.7278 9.26078 13.8302 8.38292C13.8719 8.02615 13.5768 7.73398 13.2176 7.73398V7.73398C12.8584 7.73398 12.5722 8.02681 12.5181 8.3819C12.4236 9.00199 12.194 9.59661 11.8427 10.1225C11.3702 10.8295 10.6988 11.3806 9.91321 11.706C9.12763 12.0314 8.2632 12.1165 7.42923 11.9506C6.59526 11.7847 5.82921 11.3753 5.22795 10.774C4.62669 10.1727 4.21723 9.40669 4.05134 8.57272C3.88545 7.73875 3.97059 6.87432 4.29599 6.08874C4.62139 5.30316 5.17243 4.63171 5.87944 4.1593C6.40534 3.80791 6.99996 3.57838 7.62005 3.48385C7.97514 3.42971 8.26797 3.14356 8.26797 2.78437V2.78437Z" fill="white"/>
</svg>
