<svg width="24" height="24" viewBox="0 0 24 24" fill="none" xmlns="http://www.w3.org/2000/svg">
    <path fill-rule="evenodd" clip-rule="evenodd" d="M20.3996 11.9996C20.3996 16.6388 16.6388 20.3996 11.9996 20.3996C7.36041 20.3996 3.59961 16.6388 3.59961 11.9996C3.59961 7.36041 7.36041 3.59961 11.9996 3.59961C16.6388 3.59961 20.3996 7.36041 20.3996 11.9996ZM11.9996 7.94961C10.9226 7.94961 10.0496 8.82267 10.0496 9.89961V10.0521C10.0496 10.4663 9.71382 10.8021 9.29961 10.8021C8.8854 10.8021 8.54961 10.4663 8.54961 10.0521V9.89961C8.54961 7.99422 10.0942 6.44961 11.9996 6.44961H12.2315C14.0088 6.44961 15.4496 7.89042 15.4496 9.66774C15.4496 10.8031 14.8513 11.8545 13.8752 12.4344L13.3534 12.7444C12.9791 12.9668 12.7496 13.37 12.7496 13.8055V13.9196C12.7496 14.3338 12.4138 14.6696 11.9996 14.6696C11.5854 14.6696 11.2496 14.3338 11.2496 13.9196V13.8055C11.2496 12.8408 11.758 11.9475 12.5873 11.4548L13.109 11.1448C13.6302 10.8352 13.9496 10.2739 13.9496 9.66774C13.9496 8.71884 13.1804 7.94961 12.2315 7.94961H11.9996ZM12.7496 16.0796C12.7496 15.6654 12.4138 15.3296 11.9996 15.3296C11.5854 15.3296 11.2496 15.6654 11.2496 16.0796V16.5596C11.2496 16.9738 11.5854 17.3096 11.9996 17.3096C12.4138 17.3096 12.7496 16.9738 12.7496 16.5596V16.0796Z" fill="#A0ABB5"/>
</svg>
